<svg width="20" height="20" viewBox="0 0 20 20" fill="none" xmlns="http://www.w3.org/2000/svg">
<g clip-path="url(#clip0_2073_7348)">
<path d="M9.57223 7.80883C9.70973 7.39633 10.2922 7.39633 10.4297 7.80883L11.236 10.2301C11.4134 10.7623 11.7124 11.2459 12.1093 11.6426C12.5061 12.0392 12.9899 12.3379 13.5222 12.5151L15.9422 13.3213C16.3547 13.4588 16.3547 14.0413 15.9422 14.1788L13.521 14.9851C12.9887 15.1625 12.5051 15.4615 12.1085 15.8584C11.7119 16.2552 11.4132 16.739 11.236 17.2713L10.4297 19.6913C10.4001 19.7817 10.3427 19.8603 10.2657 19.9161C10.1887 19.9718 10.0961 20.0019 10.001 20.0019C9.90592 20.0019 9.81328 19.9718 9.73629 19.9161C9.65929 19.8603 9.60188 19.7817 9.57223 19.6913L8.76598 17.2701C8.58864 16.738 8.28984 16.2544 7.89323 15.8578C7.49662 15.4612 7.0131 15.1624 6.48098 14.9851L4.05973 14.1788C3.96941 14.1492 3.89075 14.0918 3.83499 14.0148C3.77922 13.9378 3.7492 13.8451 3.7492 13.7501C3.7492 13.655 3.77922 13.5624 3.83499 13.4854C3.89075 13.4084 3.96941 13.351 4.05973 13.3213L6.48098 12.5151C7.0131 12.3377 7.49662 12.0389 7.89323 11.6423C8.28984 11.2457 8.58864 10.7622 8.76598 10.2301L9.57223 7.80883ZM4.74348 1.43508C4.76141 1.38095 4.79594 1.33384 4.84216 1.30046C4.88839 1.26707 4.94396 1.2491 5.00098 1.2491C5.05801 1.2491 5.11358 1.26707 5.1598 1.30046C5.20603 1.33384 5.24056 1.38095 5.25848 1.43508L5.74223 2.88758C5.95848 3.53508 6.46598 4.04258 7.11348 4.25883L8.56598 4.74258C8.62012 4.76051 8.66722 4.79503 8.70061 4.84126C8.734 4.88749 8.75197 4.94306 8.75197 5.00008C8.75197 5.0571 8.734 5.11268 8.70061 5.1589C8.66722 5.20513 8.62012 5.23966 8.56598 5.25758L7.11348 5.74133C6.79395 5.84738 6.50359 6.02657 6.26553 6.26463C6.02747 6.50269 5.84828 6.79305 5.74223 7.11258L5.25848 8.56508C5.24056 8.61921 5.20603 8.66632 5.1598 8.69971C5.11358 8.7331 5.05801 8.75107 5.00098 8.75107C4.94396 8.75107 4.88839 8.7331 4.84216 8.69971C4.79594 8.66632 4.76141 8.61921 4.74348 8.56508L4.25973 7.11258C4.15369 6.79305 3.9745 6.50269 3.73643 6.26463C3.49837 6.02657 3.20802 5.84738 2.88848 5.74133L1.43598 5.25758C1.38185 5.23966 1.33475 5.20513 1.30136 5.1589C1.26797 5.11268 1.25 5.0571 1.25 5.00008C1.25 4.94306 1.26797 4.88749 1.30136 4.84126C1.33475 4.79503 1.38185 4.76051 1.43598 4.74258L2.88848 4.25883C3.20802 4.15278 3.49837 3.97359 3.73643 3.73553C3.9745 3.49747 4.15369 3.20711 4.25973 2.88758L4.74348 1.43508ZM13.5797 0.123831C13.5921 0.0882393 13.6152 0.0573763 13.6459 0.0355334C13.6766 0.0136905 13.7133 0.00195312 13.751 0.00195312C13.7887 0.00195313 13.8254 0.0136905 13.8561 0.0355334C13.8868 0.0573763 13.9099 0.0882393 13.9222 0.123831L14.2447 1.09133C14.3885 1.52383 14.7272 1.86258 15.1597 2.00633L16.1272 2.32883C16.1628 2.34117 16.1937 2.36429 16.2155 2.39499C16.2374 2.42568 16.2491 2.46241 16.2491 2.50008C16.2491 2.53775 16.2374 2.57449 16.2155 2.60518C16.1937 2.63587 16.1628 2.65899 16.1272 2.67133L15.1597 2.99383C14.9468 3.06508 14.7533 3.18482 14.5945 3.3436C14.4357 3.50239 14.316 3.69588 14.2447 3.90883L13.9222 4.87633C13.9099 4.91192 13.8868 4.94279 13.8561 4.96463C13.8254 4.98647 13.7887 4.99821 13.751 4.99821C13.7133 4.99821 13.6766 4.98647 13.6459 4.96463C13.6152 4.94279 13.5921 4.91192 13.5797 4.87633L13.2572 3.90883C13.186 3.69588 13.0662 3.50239 12.9075 3.3436C12.7487 3.18482 12.5552 3.06508 12.3422 2.99383L11.376 2.67133C11.3404 2.65899 11.3095 2.63587 11.2877 2.60518C11.2658 2.57449 11.2541 2.53775 11.2541 2.50008C11.2541 2.46241 11.2658 2.42568 11.2877 2.39499C11.3095 2.36429 11.3404 2.34117 11.376 2.32883L12.3435 2.00633C12.776 1.86258 13.1147 1.52383 13.2585 1.09133L13.5797 0.123831Z" fill="#0A78FF"/>
</g>
<defs>
<clipPath id="clip0_2073_7348">
<rect width="20" height="20" fill="white"/>
</clipPath>
</defs>
</svg>
