<svg width="16" height="20" viewBox="0 0 16 20" fill="none" xmlns="http://www.w3.org/2000/svg">
<path d="M9.76172 10.3877V10.3887C9.96376 10.9944 10.3042 11.5447 10.7559 11.9961C11.1511 12.3911 11.6221 12.7008 12.1396 12.9072L12.3643 12.9893L14.6455 13.749L12.3633 14.5107C11.7574 14.7128 11.2064 15.0531 10.7549 15.5049C10.3599 15.9001 10.0501 16.3712 9.84375 16.8887L9.76172 17.1133L9.00098 19.3945L8.24023 17.1123C8.03835 16.5065 7.69857 15.9554 7.24707 15.5039C6.85194 15.1088 6.38071 14.7993 5.86328 14.5928L5.63867 14.5107L3.35547 13.75L5.63867 12.9893C6.24444 12.7874 6.79557 12.4476 7.24707 11.9961C7.6422 11.601 7.95168 11.1298 8.1582 10.6123L8.24023 10.3877L9.00098 8.10449L9.76172 10.3877ZM4.26758 3.0459C4.51696 3.7926 5.0818 4.38794 5.80762 4.67871L5.95508 4.7334L6.75586 5L5.95508 5.2666C5.56199 5.3972 5.20502 5.61824 4.91211 5.91113C4.65562 6.16762 4.45499 6.47355 4.32129 6.80957L4.26758 6.95508L4.00098 7.75586L3.73438 6.95508C3.60381 6.56167 3.38295 6.20424 3.08984 5.91113C2.79675 5.61805 2.43929 5.39716 2.0459 5.2666H2.04688L1.24512 5L2.04688 4.7334L2.0459 4.73242C2.43923 4.60185 2.79679 4.38192 3.08984 4.08887C3.38275 3.79595 3.60378 3.43901 3.73438 3.0459L4.00098 2.24414L4.26758 3.0459ZM12.7705 1.24902C12.9398 1.75844 13.31 2.17163 13.79 2.39648L14.002 2.48047L14.0605 2.5L14.002 2.51953H14.001C13.7146 2.61535 13.4547 2.77673 13.2412 2.99023C13.081 3.15047 12.9502 3.33688 12.8545 3.54102L12.7705 3.75V3.75098L12.751 3.80957L12.7314 3.75098V3.75C12.6356 3.46368 12.4742 3.20373 12.2607 2.99023C12.1005 2.82999 11.9141 2.69925 11.71 2.60352L11.501 2.51953L11.4424 2.5L11.502 2.48047L11.501 2.47949C12.0103 2.31014 12.4236 1.94092 12.6484 1.46094L12.7334 1.24902L12.751 1.19238L12.7705 1.24902Z" stroke="black"/>
</svg>
