<svg width="22" height="22" viewBox="0 0 22 22" fill="none" xmlns="http://www.w3.org/2000/svg">
<g clip-path="url(#clip0_2076_5027)">
<path d="M15.584 1.83398H6.41732C3.88601 1.83398 1.83398 3.88601 1.83398 6.41732V15.584C1.83398 18.1153 3.88601 20.1673 6.41732 20.1673H15.584C18.1153 20.1673 20.1673 18.1153 20.1673 15.584V6.41732C20.1673 3.88601 18.1153 1.83398 15.584 1.83398Z" stroke="white" stroke-width="2" stroke-linecap="round" stroke-linejoin="round"/>
<path d="M14.6667 10.4218C14.7799 11.1847 14.6495 11.9638 14.2943 12.6484C13.9391 13.333 13.3771 13.8881 12.6882 14.2348C11.9993 14.5816 11.2186 14.7023 10.4572 14.5797C9.69576 14.4572 8.99234 14.0977 8.44699 13.5524C7.90165 13.007 7.54214 12.3036 7.41962 11.5422C7.29709 10.7807 7.41778 10 7.76452 9.31114C8.11126 8.62225 8.66639 8.06023 9.35096 7.70502C10.0355 7.34981 10.8147 7.21951 11.5776 7.33263C12.3557 7.44803 13.0762 7.81064 13.6324 8.36691C14.1887 8.92319 14.5513 9.64362 14.6667 10.4218Z" stroke="white" stroke-width="2" stroke-linecap="round" stroke-linejoin="round"/>
<path d="M16.041 5.95898H16.0502" stroke="white" stroke-width="2" stroke-linecap="round" stroke-linejoin="round"/>
</g>
<defs>
<clipPath id="clip0_2076_5027">
<rect width="22" height="22" fill="white"/>
</clipPath>
</defs>
</svg>
