<svg width="1648" height="1256" viewBox="0 0 1648 1256" fill="none" xmlns="http://www.w3.org/2000/svg">
<path fill-rule="evenodd" clip-rule="evenodd" d="M1575.97 374.432C1426.08 589.619 1226.24 672.289 1202.74 681.459C1202.22 684.866 1201.66 688.261 1201.08 691.648C1201.08 691.689 1201.07 691.73 1201.06 691.771C1200.67 694.093 1200.26 696.41 1199.83 698.723C1199.61 699.932 1199.39 701.14 1199.16 702.346C1198.95 703.465 1198.73 704.581 1198.51 705.698C1198.28 706.886 1198.05 708.073 1197.81 709.258C1197.58 710.379 1197.35 711.499 1197.12 712.618C1196.97 713.351 1196.81 714.082 1196.65 714.814C1196.32 716.376 1195.99 717.937 1195.65 719.495C1195.39 720.672 1195.12 721.846 1194.86 723.02C1191.79 736.51 1188.27 749.823 1184.3 762.945C1184.12 763.545 1183.94 764.143 1183.76 764.743C1183.25 766.385 1182.75 768.024 1182.23 769.66V769.661C1181.97 770.468 1181.72 771.274 1181.46 772.08C1181.01 773.488 1180.55 774.893 1180.09 776.296C1179.72 777.425 1179.35 778.553 1178.97 779.68C1178.41 781.348 1177.84 783.012 1177.27 784.673C1177.09 785.195 1176.91 785.718 1176.73 786.239C1175.6 789.476 1174.45 792.702 1173.26 795.913C1172.95 796.766 1172.63 797.616 1172.31 798.466C1171.69 800.125 1171.07 801.782 1170.43 803.433C1170.12 804.254 1169.8 805.075 1169.48 805.895C1169.1 806.86 1168.73 807.829 1168.35 808.791C1168.19 809.209 1168.02 809.623 1167.85 810.04C1166.96 812.279 1166.05 814.512 1165.14 816.738L1165.14 816.739C1164.5 818.272 1163.87 819.804 1163.23 821.331C1162.83 822.265 1162.43 823.194 1162.03 824.125C1161.53 825.298 1161.03 826.472 1160.52 827.642C1160.09 828.627 1159.65 829.608 1159.22 830.591C1158.73 831.701 1158.23 832.811 1157.74 833.917C1156.11 837.529 1154.45 841.119 1152.75 844.692C1152.49 845.249 1152.22 845.807 1151.96 846.363C1151.24 847.872 1150.51 849.376 1149.77 850.878C1149.5 851.432 1149.23 851.987 1148.96 852.54C1148.06 854.365 1147.15 856.184 1146.23 857.998C1146.11 858.23 1146 858.463 1145.88 858.695C1145.01 860.407 1144.13 862.114 1143.25 863.817C1143.07 864.161 1142.89 864.507 1142.71 864.851C1142.22 865.786 1141.74 866.722 1141.24 867.654C1140.63 868.808 1140.01 869.957 1139.4 871.107C1137.5 874.626 1135.58 878.123 1133.62 881.599C1132.9 882.87 1132.18 884.142 1131.46 885.407C1130.95 886.283 1130.44 887.155 1129.94 888.029C1129.49 888.788 1129.05 889.546 1128.61 890.304C1127.88 891.549 1127.14 892.79 1126.4 894.028C1125.78 895.069 1125.16 896.109 1124.54 897.146C1123.98 898.069 1123.41 898.988 1122.85 899.908C1122.6 900.31 1122.36 900.711 1122.11 901.112C1119.97 904.587 1117.8 908.041 1115.59 911.468C1114.94 912.471 1114.29 913.471 1113.64 914.469C1113.05 915.369 1112.46 916.27 1111.87 917.166C1111.2 918.177 1110.53 919.183 1109.85 920.189C1107.58 923.587 1105.26 926.96 1102.92 930.308C1102.55 930.828 1102.19 931.35 1101.82 931.87C1100.32 933.998 1098.81 936.118 1097.28 938.225C1097.01 938.597 1096.74 938.972 1096.47 939.343C1094.28 942.35 1092.06 945.329 1089.81 948.293C1089.33 948.935 1088.84 949.577 1088.36 950.217C1084.41 955.376 1080.38 960.465 1076.27 965.489C1076.08 965.724 1075.89 965.961 1075.7 966.196C1074.42 967.758 1073.13 969.312 1071.83 970.86C1071.66 971.056 1071.5 971.252 1071.34 971.447C1069.21 973.979 1067.07 976.496 1064.9 978.992C1064.47 979.494 1064.03 979.992 1063.59 980.491C1062.54 981.69 1061.49 982.89 1060.43 984.081C1059.76 984.836 1059.08 985.585 1058.41 986.336C1057.51 987.335 1056.62 988.336 1055.71 989.329C1054.55 990.603 1053.38 991.869 1052.21 993.134C1050.9 994.553 1049.58 995.964 1048.25 997.371C1047.76 997.894 1047.26 998.418 1046.77 998.939C1044.41 1001.42 1042.03 1003.87 1039.63 1006.31C1038.86 1007.09 1038.08 1007.88 1037.31 1008.65C1036.58 1009.39 1035.84 1010.12 1035.1 1010.86C1034.23 1011.72 1033.36 1012.58 1032.49 1013.44C1031.49 1014.42 1030.48 1015.4 1029.47 1016.37C1028.85 1016.98 1028.23 1017.58 1027.6 1018.18C1026.1 1019.62 1024.59 1021.05 1023.08 1022.47C1022.93 1022.61 1022.78 1022.75 1022.64 1022.89C1019.52 1025.81 1016.37 1028.7 1013.19 1031.55C1012.89 1031.82 1012.58 1032.1 1012.28 1032.37C1011.64 1032.94 1011.01 1033.51 1010.38 1034.07C1010.13 1034.29 1009.89 1034.5 1009.64 1034.72C1007.82 1036.32 1006 1037.92 1004.16 1039.5C1003.3 1040.24 1002.43 1040.98 1001.56 1041.72C999.611 1043.39 997.647 1045.04 995.672 1046.68C995.45 1046.86 995.23 1047.05 995.008 1047.23C986.475 1054.29 977.736 1061.11 968.81 1067.69C968.576 1067.86 968.343 1068.04 968.109 1068.21C967.316 1068.79 966.525 1069.38 965.729 1069.95C964.64 1070.75 963.545 1071.53 962.451 1072.32C961.705 1072.85 960.962 1073.39 960.213 1073.92C959.063 1074.74 957.907 1075.54 956.751 1076.35C956.051 1076.84 955.355 1077.33 954.653 1077.82C952.81 1079.1 950.96 1080.36 949.102 1081.62C947.577 1082.65 946.044 1083.67 944.509 1084.69C944.154 1084.92 943.801 1085.16 943.445 1085.39C942.426 1086.07 941.401 1086.73 940.377 1087.39C939.499 1087.97 938.622 1088.54 937.739 1089.11C934.988 1090.88 932.219 1092.62 929.437 1094.35C928.351 1095.02 927.264 1095.69 926.173 1096.36C925.311 1096.88 924.448 1097.41 923.583 1097.93C922.493 1098.59 921.4 1099.24 920.305 1099.89C919.439 1100.41 918.573 1100.92 917.704 1101.43C916.595 1102.09 915.482 1102.73 914.368 1103.38C913.51 1103.87 912.653 1104.37 911.793 1104.86C910.643 1105.52 909.488 1106.18 908.332 1106.83C907.504 1107.29 906.677 1107.76 905.846 1108.23C904.603 1108.92 903.354 1109.6 902.106 1110.29C898.637 1112.19 895.147 1114.05 891.636 1115.89C890.362 1116.55 889.089 1117.22 887.81 1117.88C887.149 1118.22 886.484 1118.55 885.822 1118.88C884.45 1119.58 883.077 1120.28 881.699 1120.96C880.885 1121.37 880.067 1121.77 879.251 1122.17C878.588 1122.5 877.922 1122.82 877.257 1123.14C873.735 1124.86 870.195 1126.55 866.634 1128.2C866.168 1128.41 865.7 1128.63 865.233 1128.84C862.469 1130.11 859.695 1131.37 856.908 1132.6C856.864 1132.62 856.821 1132.63 856.777 1132.65C855.865 1133.06 854.952 1133.46 854.037 1133.86C853.338 1134.16 852.637 1134.46 851.936 1134.76C850.527 1135.37 849.117 1135.97 847.703 1136.57C847.064 1136.84 846.422 1137.1 845.781 1137.37C842.184 1138.87 838.573 1140.34 834.94 1141.77C832.809 1142.61 830.673 1143.44 828.53 1144.25C828.329 1144.33 828.127 1144.4 827.927 1144.48H827.926C825.976 1145.22 824.021 1145.95 822.061 1146.67C821.163 1147 820.26 1147.32 819.36 1147.64C818.092 1148.1 816.824 1148.56 815.551 1149.01C812.454 1150.11 809.342 1151.17 806.221 1152.21C804.952 1152.64 803.681 1153.06 802.408 1153.48C801.097 1153.91 799.782 1154.33 798.467 1154.75C797.567 1155.04 796.667 1155.32 795.766 1155.61H795.765C794.084 1156.14 792.397 1156.65 790.709 1157.17C790.161 1157.33 789.613 1157.5 789.064 1157.67C788.114 1157.95 787.163 1158.24 786.21 1158.52C784.902 1158.91 783.591 1159.28 782.28 1159.66C780.086 1160.29 777.886 1160.91 775.682 1161.52C775.568 1161.55 775.455 1161.58 775.342 1161.61C773.301 1162.17 771.254 1162.72 769.204 1163.26C768.777 1163.37 768.351 1163.49 767.923 1163.6C765.916 1164.12 763.904 1164.63 761.889 1165.13C761.009 1165.35 760.132 1165.58 759.25 1165.79C752.509 1167.44 745.72 1168.97 738.89 1170.38C738.824 1170.39 738.758 1170.41 738.692 1170.42C737.719 1170.62 736.744 1170.82 735.769 1171.01C734.434 1171.28 733.099 1171.55 731.762 1171.81C730.769 1172 729.776 1172.19 728.781 1172.38C727.451 1172.63 726.119 1172.88 724.785 1173.12C721.466 1173.72 718.137 1174.3 714.798 1174.84C713.405 1175.07 712.01 1175.29 710.614 1175.51C709.671 1175.66 708.729 1175.81 707.784 1175.95C706.805 1176.1 705.824 1176.24 704.844 1176.38C702.435 1176.73 700.023 1177.07 697.605 1177.4C696.752 1177.51 695.901 1177.63 695.048 1177.74C694.597 1177.8 694.146 1177.86 693.694 1177.92C692.762 1178.04 691.827 1178.14 690.893 1178.25C687.982 1178.61 685.064 1178.94 682.14 1179.26C681.262 1179.35 680.386 1179.45 679.507 1179.54C678.604 1179.63 677.7 1179.72 676.796 1179.81C675.633 1179.92 674.469 1180.03 673.305 1180.14C671.44 1180.31 669.571 1180.47 667.701 1180.62C666.865 1180.69 666.03 1180.77 665.193 1180.83C661.176 1181.14 657.146 1181.41 653.107 1181.65C652.313 1181.69 651.52 1181.74 650.725 1181.78C649.697 1181.84 648.669 1181.89 647.639 1181.94C646.229 1182.01 644.817 1182.07 643.404 1182.13C642.397 1182.17 641.39 1182.21 640.382 1182.25C638.912 1182.3 637.44 1182.35 635.967 1182.39C635.016 1182.42 634.065 1182.45 633.112 1182.47C632.162 1182.5 631.209 1182.51 630.258 1182.53C626.355 1182.6 622.447 1182.65 618.526 1182.65C614.718 1182.65 610.921 1182.6 607.129 1182.53C606.71 1182.52 606.29 1182.52 605.871 1182.51C602.645 1182.44 599.424 1182.36 596.211 1182.24C596.075 1182.23 595.938 1182.23 595.802 1182.22C588.393 1181.94 581.019 1181.52 573.681 1180.97C573.549 1180.96 573.416 1180.96 573.283 1180.95C569.99 1180.7 566.707 1180.41 563.428 1180.11C563.371 1180.1 563.314 1180.1 563.256 1180.09C559.496 1179.74 555.744 1179.36 552.004 1178.94C551.818 1178.92 551.632 1178.9 551.446 1178.88C548.045 1178.5 544.654 1178.08 541.271 1177.64C540.467 1177.53 539.665 1177.43 538.862 1177.32C531.746 1176.36 524.67 1175.27 517.637 1174.06C517.436 1174.03 517.234 1173.99 517.032 1173.96C514.205 1173.47 511.384 1172.96 508.57 1172.43C508.188 1172.36 507.805 1172.29 507.424 1172.22C493.144 1169.51 479.049 1166.27 465.153 1162.55C464.957 1162.5 464.761 1162.45 464.565 1162.39C458.095 1160.65 451.672 1158.8 445.291 1156.85C444.761 1156.68 444.228 1156.53 443.698 1156.36C440.226 1155.29 436.769 1154.18 433.325 1153.04C433.111 1152.97 432.897 1152.9 432.683 1152.83C430.041 1151.95 427.406 1151.06 424.78 1150.15C424.471 1150.04 424.161 1149.94 423.851 1149.83C416.986 1147.44 410.179 1144.92 403.432 1142.28C403.277 1142.22 403.121 1142.16 402.966 1142.1C399.982 1140.93 397.01 1139.74 394.05 1138.52C393.539 1138.31 393.03 1138.1 392.52 1137.89C389.919 1136.81 387.327 1135.71 384.745 1134.6C384.207 1134.37 383.668 1134.14 383.131 1133.91C377.12 1131.29 371.162 1128.58 365.256 1125.77C364.728 1125.52 364.198 1125.27 363.671 1125.02C357.773 1122.2 351.931 1119.28 346.143 1116.27C345.922 1116.15 345.702 1116.04 345.481 1115.92C342.188 1114.2 338.911 1112.46 335.655 1110.68C335.492 1110.59 335.328 1110.5 335.164 1110.41C332.572 1108.99 329.993 1107.55 327.424 1106.09C327.015 1105.86 326.605 1105.63 326.196 1105.4C320.44 1102.11 314.747 1098.74 309.115 1095.27C308.853 1095.11 308.592 1094.95 308.33 1094.79C305.336 1092.94 302.356 1091.07 299.397 1089.16C299.283 1089.09 299.169 1089.01 299.055 1088.94C296.249 1087.13 293.462 1085.3 290.688 1083.45C290.418 1083.27 290.148 1083.09 289.879 1082.91C287.145 1081.08 284.425 1079.23 281.724 1077.35H281.723C281.714 1077.34 281.704 1077.34 281.694 1077.33C279.043 1075.49 276.412 1073.62 273.793 1071.73C273.705 1071.67 273.616 1071.61 273.528 1071.54C267.881 1067.48 262.309 1063.31 256.814 1059.05C256.417 1058.75 256.02 1058.44 255.624 1058.13C250.45 1054.1 245.345 1049.98 240.311 1045.79C240.175 1045.67 240.039 1045.56 239.903 1045.45C229.032 1036.36 218.492 1026.9 208.303 1017.07C208.162 1016.94 208.021 1016.8 207.88 1016.67C203.115 1012.06 198.425 1007.38 193.816 1002.61C193.542 1002.33 193.268 1002.04 192.994 1001.76C188.374 996.968 183.833 992.098 179.376 987.152C179.133 986.882 178.891 986.612 178.648 986.341C174.179 981.363 169.792 976.31 165.491 971.181C165.398 971.071 165.306 970.96 165.214 970.85C142.66 943.916 122.461 914.944 104.936 884.247C104.867 884.126 104.798 884.004 104.729 883.883C103.046 880.929 101.386 877.959 99.7507 874.973C99.7407 874.953 99.7297 874.934 99.7187 874.914C96.3397 868.739 93.0697 862.497 89.9077 856.191C89.8577 856.09 89.8057 855.99 89.7557 855.889C88.1897 852.762 86.6507 849.619 85.1387 846.46C85.1257 846.432 85.1117 846.404 85.0987 846.376C82.0367 839.974 79.0857 833.509 76.2497 826.983C53.9867 940.061 94.6427 1082.4 120.501 1130.91C181.654 1123.57 194.845 1183.82 157.461 1207.38C154.854 1251.71 99.9857 1276.01 80.9297 1232.3C29.5017 1247.67 17.4567 1189.17 53.2257 1150.79C-12.9543 966.657 -17.3383 862.973 41.9727 722.03C41.3867 719.427 40.8177 716.816 40.2667 714.199C40.2587 714.166 40.2517 714.132 40.2447 714.099C37.2347 699.809 34.7407 685.33 32.7837 670.681C32.7497 670.429 32.7157 670.177 32.6827 669.925C32.1647 666.011 31.6807 662.086 31.2407 658.149C31.2347 658.104 31.2307 658.059 31.2257 658.013C30.0697 647.667 29.1847 637.238 28.5697 626.737C28.5687 626.716 28.5677 626.694 28.5657 626.672C28.4117 624.038 28.2757 621.4 28.1567 618.756C28.1257 618.063 28.0947 617.369 28.0647 616.675C27.9807 614.671 27.9097 612.663 27.8467 610.654C27.8157 609.684 27.7797 608.715 27.7537 607.744C27.6917 605.415 27.6457 603.081 27.6107 600.745C27.6037 600.398 27.5957 600.051 27.5907 599.704C27.5547 597.028 27.5347 594.347 27.5347 591.663C27.5347 265.267 292.131 0.671875 618.526 0.671875C621.066 0.671875 623.602 0.687875 626.135 0.719875C630.091 0.769875 634.034 0.869875 637.971 0.997875C639.076 1.02988 640.181 1.06088 641.283 1.10188C648.285 1.36788 655.254 1.76288 662.191 2.26888C662.735 2.30688 663.279 2.34187 663.822 2.38287C664.973 2.46987 666.12 2.57088 667.27 2.66488C667.989 2.72388 668.707 2.78388 669.426 2.84288C671.854 3.04988 674.278 3.27188 676.698 3.50888C677.372 3.57188 678.047 3.63288 678.72 3.70088C682.366 4.06988 686 4.48187 689.627 4.91687C689.869 4.94587 690.11 4.97488 690.352 5.00388C697.779 5.90388 705.164 6.94188 712.504 8.11388C713.497 8.27088 714.49 8.42488 715.48 8.58788C716.648 8.78088 717.813 8.98587 718.979 9.18587C720.235 9.40087 721.493 9.61087 722.745 9.83387C724.143 10.0829 725.537 10.3459 726.932 10.6039C727.948 10.7899 728.965 10.9749 729.979 11.1679C731.144 11.3909 732.305 11.6249 733.467 11.8539C734.548 12.0669 735.629 12.2789 736.708 12.4959C738.028 12.7639 739.344 13.0419 740.661 13.3179C741 13.3899 741.339 13.4619 741.679 13.5329C743.731 13.9679 745.779 14.4139 747.823 14.8699C748.883 15.1069 749.943 15.3419 751.001 15.5829C757.074 16.9739 763.109 18.4629 769.108 20.0389C769.307 20.0919 769.507 20.1449 769.707 20.1969C771.854 20.7639 773.997 21.3419 776.134 21.9319C776.721 22.0939 777.308 22.2579 777.895 22.4199C779.642 22.9079 781.385 23.4039 783.126 23.9079C784.313 24.2519 785.502 24.5919 786.687 24.9429C790.139 25.9659 793.575 27.0259 796.101 28.1099C796.101 28.1099 796.101 28.1099 797.001 28.1099C798.174 28.4809 799.349 28.8499 800.519 29.2279C801.643 29.5919 802.762 29.9639 803.883 30.3339C805.025 30.7109 806.168 31.0859 807.308 31.4699C809.164 32.0949 811.014 32.7339 812.861 33.3769C813.309 33.5309 813.757 33.6839 814.203 33.8399C819.854 35.8219 825.464 37.8939 831.035 40.0409C832.172 40.4789 833.31 40.9159 834.444 41.3619C835.569 41.8029 836.689 42.2529 837.81 42.7019C838.912 43.1419 840.014 43.5809 841.112 44.0269C842.203 44.4709 843.289 44.9229 844.376 45.3729C845.499 45.8369 846.622 46.2999 847.741 46.7719C849.562 47.5389 851.376 48.3179 853.187 49.1029C853.567 49.2669 853.949 49.4279 854.328 49.5939C855.406 50.0629 856.48 50.5399 857.554 51.0159C858.662 51.5069 859.77 51.9959 860.874 52.4929C861.945 52.9749 863.013 53.4649 864.081 53.9539C864.543 54.1649 865.004 54.3789 865.466 54.5899C867.17 55.3749 868.87 56.1669 870.565 56.9669C871.266 57.2979 871.965 57.6309 872.665 57.9629C876.499 59.7919 880.309 61.6619 884.096 63.5699C884.942 63.9959 885.789 64.4199 886.633 64.8499C888.347 65.7249 890.054 66.6099 891.759 67.5009C892.16 67.7099 892.563 67.9169 892.963 68.1269C893.101 68.6719 895.034 69.2239 896.068 69.7749C897.007 70.2749 897.946 70.7769 898.882 71.2809C900.035 71.9039 901.185 72.5319 902.333 73.1619C903.386 73.7399 904.44 74.3169 905.489 74.9009C906.512 75.4709 907.532 76.0459 908.551 76.6219C908.782 76.7519 909.013 76.8839 909.244 77.0139C911.076 78.0519 912.903 79.0969 914.723 80.1539H914.724C915.332 80.5069 915.939 80.8629 916.547 81.2169C918.406 82.3049 920.258 83.4029 922.104 84.5099C922.713 84.8749 923.324 85.2379 923.932 85.6059C931.01 89.8869 937.99 94.3149 944.87 98.8799C945.866 99.5409 946.86 100.202 947.852 100.868C948.821 101.52 949.787 102.177 950.752 102.834H950.753C951.739 103.506 952.726 104.179 953.708 104.857C956.614 106.861 959.499 108.893 962.366 110.948C963.335 111.642 964.304 112.338 965.268 113.038C966.831 114.173 968.389 115.318 969.941 116.468C970.284 116.722 970.629 116.974 970.972 117.229C971.908 117.926 972.841 118.627 973.774 119.329C973.897 119.422 974.019 119.515 974.142 119.608C977.785 122.357 981.395 125.145 984.971 127.975C985.192 128.15 985.411 128.326 985.632 128.501C987.257 129.791 988.877 131.089 990.489 132.396C991.413 133.145 992.336 133.896 993.255 134.651C994.506 135.677 995.75 136.711 996.991 137.748C997.558 138.221 998.126 138.692 998.691 139.168C1002.08 142.02 1005.44 144.912 1008.77 147.839C1008.98 148.023 1009.19 148.207 1009.4 148.391C1013.8 152.28 1018.15 156.233 1022.44 160.249V160.25C1022.65 160.446 1022.86 160.644 1023.07 160.84C1024.95 162.613 1026.83 164.399 1028.69 166.196C1029.17 166.658 1029.65 167.119 1030.13 167.582C1030.97 168.395 1031.8 169.21 1032.63 170.027C1033.48 170.859 1034.32 171.694 1035.17 172.531C1036.31 173.665 1037.44 174.805 1038.57 175.949C1039.1 176.479 1039.62 177.008 1040.14 177.54C1040.96 178.372 1041.78 179.207 1042.59 180.044C1043.42 180.896 1044.24 181.75 1045.06 182.607C1049.13 186.847 1053.14 191.147 1057.08 195.507C1057.39 195.859 1057.71 196.214 1058.03 196.567C1059.29 197.964 1060.54 199.366 1061.78 200.776C1062.57 201.666 1063.35 202.559 1064.13 203.454C1064.9 204.334 1065.66 205.216 1066.43 206.101C1066.84 206.577 1067.24 207.056 1067.65 207.534C1069.34 209.505 1071.01 211.487 1072.68 213.48C1072.88 213.725 1073.09 213.97 1073.29 214.216C1074.19 215.303 1075.09 216.393 1075.99 217.486C1076.59 218.216 1077.18 218.947 1077.78 219.68C1079.18 221.413 1080.58 223.155 1081.96 224.905C1082.04 225.003 1082.12 225.1 1082.2 225.197C1082.92 226.114 1083.65 227.032 1084.37 227.953C1084.81 228.515 1085.24 229.079 1085.68 229.643C1086.91 231.229 1088.13 232.82 1089.35 234.419C1089.85 235.076 1090.35 235.734 1090.84 236.393C1091.7 237.538 1092.56 238.686 1093.42 239.838C1093.97 240.581 1094.52 241.325 1095.07 242.071C1096.13 243.512 1097.18 244.96 1098.22 246.411C1098.56 246.874 1098.89 247.336 1099.22 247.8C1099.91 248.752 1100.59 249.704 1101.26 250.659C1101.66 251.224 1102.06 251.792 1102.46 252.359C1103.42 253.724 1104.37 255.091 1105.32 256.465C1106 257.445 1106.67 258.428 1107.34 259.412C1108 260.381 1108.66 261.349 1109.31 262.322C1109.97 263.31 1110.63 264.302 1111.29 265.294C1111.94 266.271 1112.59 267.247 1113.23 268.228C1113.6 268.8 1113.97 269.374 1114.35 269.947C1115.87 272.292 1117.38 274.648 1118.87 277.015C1118.91 277.079 1118.95 277.142 1118.99 277.206C1119.62 278.199 1120.24 279.192 1120.86 280.189C1121.49 281.202 1122.12 282.218 1122.74 283.235C1123.35 284.236 1123.97 285.237 1124.57 286.242C1125.19 287.263 1125.8 288.287 1126.41 289.312C1127.02 290.32 1127.62 291.33 1128.21 292.342C1128.72 293.203 1129.22 294.066 1129.72 294.93C1130.41 296.115 1131.1 297.3 1131.78 298.49C1132.38 299.527 1132.96 300.568 1133.55 301.609C1136.46 306.762 1139.3 311.962 1142.05 317.21C1142.61 318.27 1143.16 319.334 1143.71 320.398C1144.25 321.445 1144.79 322.491 1145.33 323.541C1145.87 324.608 1146.41 325.68 1146.95 326.752C1147.48 327.805 1148.01 328.858 1148.53 329.915C1149.06 330.99 1149.59 332.07 1150.11 333.149C1152.04 337.097 1153.92 341.07 1155.76 345.066C1155.91 345.402 1156.06 345.737 1156.22 346.073C1157.7 349.316 1159.16 352.571 1160.59 355.845C1160.81 356.366 1161.04 356.89 1161.26 357.412C1163.04 361.527 1164.77 365.664 1166.46 369.826C1166.81 370.691 1167.16 371.557 1167.5 372.424C1167.94 373.525 1168.39 374.625 1168.82 375.729C1169.26 376.855 1169.7 377.984 1170.13 379.113L1170.13 379.114C1170.56 380.221 1170.99 381.327 1171.41 382.437C1171.62 382.999 1171.83 383.564 1172.04 384.127C1172.75 386.033 1173.46 387.943 1174.16 389.858C1174.49 390.774 1174.82 391.692 1175.15 392.61V392.611C1175.55 393.73 1175.95 394.847 1176.34 395.97C1176.74 397.116 1177.14 398.267 1177.53 399.416C1179.07 403.889 1180.56 408.386 1181.99 412.906C1182.01 412.985 1182.04 413.063 1182.06 413.141V413.142C1182.76 415.339 1183.44 417.542 1184.11 419.75C1184.14 419.853 1184.17 419.956 1184.21 420.059C1186.65 428.135 1188.94 436.281 1191.04 444.499C1191.18 445.02 1191.31 445.542 1191.44 446.064C1193.09 452.606 1194.65 459.19 1196.09 465.818C1196.31 466.851 1196.53 467.888 1196.74 468.924C1197.53 472.668 1198.3 476.422 1199.02 480.192C1199.16 480.931 1199.29 481.671 1199.43 482.411C1199.74 484.082 1200.05 485.751 1200.35 487.426V487.427C1200.57 488.661 1200.78 489.9 1200.99 491.137V491.138C1201.61 494.744 1202.2 498.358 1202.75 501.986C1202.94 503.236 1203.12 504.49 1203.3 505.742L1203.3 505.743C1204.01 510.619 1204.66 515.514 1205.26 520.428C1205.26 520.443 1205.26 520.457 1205.26 520.472C1205.4 521.662 1205.55 522.85 1205.69 524.043C1205.83 525.321 1205.97 526.603 1206.1 527.884V527.885C1206.23 529.073 1206.36 530.26 1206.49 531.451C1206.62 532.742 1206.73 534.036 1206.85 535.329V535.33C1206.97 536.516 1207.09 537.699 1207.19 538.887C1207.25 539.547 1207.3 540.209 1207.35 540.87C1207.72 545.196 1208.05 549.533 1208.33 553.884C1208.41 555.218 1208.48 556.555 1208.56 557.891V557.894C1208.66 559.662 1208.75 561.431 1208.83 563.203C1208.87 563.982 1208.9 564.76 1208.94 565.539V565.542C1209.11 569.518 1209.25 573.504 1209.34 577.5C1209.38 578.974 1209.4 580.45 1209.43 581.926C1209.43 581.929 1209.43 581.931 1209.43 581.934C1209.44 582.635 1209.46 583.334 1209.47 584.035C1264.25 571.211 1472.49 405.826 1494.1 340.616C1440.44 287.386 1496.14 219.106 1545.71 269.424C1593.47 193.215 1654 252.766 1615.13 305.02C1680.77 328.933 1636.49 403.32 1575.97 374.432Z" fill="#0978FF"/>
<path fill-rule="evenodd" clip-rule="evenodd" d="M780.54 482.082C756.861 482.082 737.666 462.886 737.666 439.208C737.666 415.529 756.861 396.334 780.54 396.334C804.218 396.334 823.414 415.529 823.414 439.208C823.414 462.886 804.218 482.082 780.54 482.082ZM558.478 671.358C530.419 659.654 547.387 629.341 562.037 628.643C604.514 627.022 625.948 630.43 665.266 589.487C706.596 560.409 708.438 608.401 699.083 621.523C681.583 659.596 615.045 694.954 558.478 671.358ZM390.761 615.568C367.082 615.568 347.887 596.372 347.887 572.694C347.887 549.015 367.082 529.82 390.761 529.82C414.439 529.82 433.635 549.015 433.635 572.694C433.635 596.372 414.439 615.568 390.761 615.568Z" fill="white"/>
</svg>
