<svg width="60" height="80" viewBox="0 0 60 80" fill="none" xmlns="http://www.w3.org/2000/svg">
<path d="M33.2889 31.2353C33.8389 29.5853 36.1689 29.5853 36.7189 31.2353L39.9439 40.9203C40.6538 43.0493 41.8498 44.9837 43.4371 46.5702C45.0245 48.1567 46.9595 49.3516 49.0889 50.0603L58.7689 53.2853C60.4189 53.8353 60.4189 56.1653 58.7689 56.7153L49.0839 59.9403C46.9549 60.6502 45.0205 61.8462 43.434 63.4335C41.8476 65.0209 40.6526 66.9559 39.9439 69.0853L36.7189 78.7653C36.6004 79.1266 36.3707 79.4413 36.0627 79.6643C35.7548 79.8874 35.3842 80.0075 35.0039 80.0075C34.6237 80.0075 34.2531 79.8874 33.9451 79.6643C33.6372 79.4413 33.4075 79.1266 33.2889 78.7653L30.0639 69.0803C29.3546 66.9519 28.1593 65.0178 26.5729 63.4314C24.9865 61.8449 23.0524 60.6497 20.9239 59.9403L11.2389 56.7153C10.8776 56.5968 10.563 56.3671 10.3399 56.0591C10.1169 55.7511 9.99678 55.3806 9.99678 55.0003C9.99678 54.6201 10.1169 54.2495 10.3399 53.9415C10.563 53.6336 10.8776 53.4039 11.2389 53.2853L20.9239 50.0603C23.0524 49.351 24.9865 48.1557 26.5729 46.5693C28.1593 44.9829 29.3546 43.0488 30.0639 40.9203L33.2889 31.2353ZM13.9739 5.74033C14.0456 5.5238 14.1837 5.33537 14.3687 5.20182C14.5536 5.06827 14.7758 4.99639 15.0039 4.99639C15.232 4.99639 15.4543 5.06827 15.6392 5.20182C15.8241 5.33537 15.9622 5.5238 16.0339 5.74033L17.9689 11.5503C18.8339 14.1403 20.8639 16.1703 23.4539 17.0353L29.2639 18.9703C29.4805 19.042 29.6689 19.1801 29.8024 19.365C29.936 19.5499 30.0079 19.7722 30.0079 20.0003C30.0079 20.2284 29.936 20.4507 29.8024 20.6356C29.6689 20.8205 29.4805 20.9586 29.2639 21.0303L23.4539 22.9653C22.1758 23.3895 21.0144 24.1063 20.0621 25.0585C19.1099 26.0108 18.3931 27.1722 17.9689 28.4503L16.0339 34.2603C15.9622 34.4769 15.8241 34.6653 15.6392 34.7988C15.4543 34.9324 15.232 35.0043 15.0039 35.0043C14.7758 35.0043 14.5536 34.9324 14.3687 34.7988C14.1837 34.6653 14.0456 34.4769 13.9739 34.2603L12.0389 28.4503C11.6147 27.1722 10.898 26.0108 9.94574 25.0585C8.99349 24.1063 7.83206 23.3895 6.55393 22.9653L0.743935 21.0303C0.527407 20.9586 0.338982 20.8205 0.205432 20.6356C0.0718818 20.4507 0 20.2284 0 20.0003C0 19.7722 0.0718818 19.5499 0.205432 19.365C0.338982 19.1801 0.527407 19.042 0.743935 18.9703L6.55393 17.0353C7.83206 16.6111 8.99349 15.8944 9.94574 14.9421C10.898 13.9899 11.6147 12.8285 12.0389 11.5503L13.9739 5.74033ZM49.3189 0.495326C49.3683 0.352957 49.4608 0.229505 49.5835 0.142134C49.7063 0.054762 49.8533 0.0078125 50.0039 0.0078125C50.1546 0.0078125 50.3016 0.054762 50.4243 0.142134C50.5471 0.229505 50.6396 0.352957 50.6889 0.495326L51.9789 4.36533C52.5539 6.09533 53.9089 7.45033 55.6389 8.02533L59.5089 9.31533C59.6513 9.36468 59.7748 9.45718 59.8621 9.57994C59.9495 9.70271 59.9964 9.84964 59.9964 10.0003C59.9964 10.151 59.9495 10.2979 59.8621 10.4207C59.7748 10.5435 59.6513 10.636 59.5089 10.6853L55.6389 11.9753C54.7871 12.2603 54.0132 12.7393 53.378 13.3744C52.7429 14.0095 52.2639 14.7835 51.9789 15.6353L50.6889 19.5053C50.6396 19.6477 50.5471 19.7711 50.4243 19.8585C50.3016 19.9459 50.1546 19.9928 50.0039 19.9928C49.8533 19.9928 49.7063 19.9459 49.5835 19.8585C49.4608 19.7711 49.3683 19.6477 49.3189 19.5053L48.0289 15.6353C47.7439 14.7835 47.265 14.0095 46.6299 13.3744C45.9947 12.7393 45.2207 12.2603 44.3689 11.9753L40.5039 10.6853C40.3616 10.636 40.2381 10.5435 40.1507 10.4207C40.0634 10.2979 40.0164 10.151 40.0164 10.0003C40.0164 9.84964 40.0634 9.70271 40.1507 9.57994C40.2381 9.45718 40.3616 9.36468 40.5039 9.31533L44.3739 8.02533C46.1039 7.45033 47.4589 6.09533 48.0339 4.36533L49.3189 0.495326Z" fill="#334155"/>
</svg>
