<svg width="15" height="20" viewBox="0 0 15 20" fill="none" xmlns="http://www.w3.org/2000/svg">
<path d="M9.27441 10.4648V10.4658C9.48873 11.1084 9.85002 11.692 10.3291 12.1709C10.7484 12.5899 11.2479 12.9188 11.7969 13.1377L12.0352 13.2246L13.6045 13.7471L12.0342 14.2715C11.3915 14.4858 10.8071 14.847 10.3281 15.3262C9.9091 15.7454 9.58026 16.245 9.36133 16.7939L9.27441 17.0322L8.75098 18.6016L8.22754 17.0312C8.04014 16.4689 7.74055 15.9512 7.34766 15.5098L7.17383 15.3252C6.75468 14.9061 6.25494 14.5775 5.70605 14.3584L5.46777 14.2715L3.89648 13.748L5.46777 13.2246C6.11037 13.0105 6.69488 12.6498 7.17383 12.1709C7.59297 11.7517 7.92155 11.252 8.14062 10.7031L8.22754 10.4648L8.75098 8.89355L9.27441 10.4648ZM3.78027 3.12305H3.78125C4.054 3.93973 4.67095 4.59124 5.46484 4.90918L5.62598 4.96777L5.62695 4.96875L5.71484 4.99805L5.62695 5.02734C5.1967 5.17017 4.80592 5.41186 4.48535 5.73242C4.20484 6.01293 3.98513 6.34737 3.83887 6.71484L3.78027 6.87402L3.75098 6.96191L3.72168 6.87402C3.57884 6.44378 3.33716 6.05298 3.0166 5.73242C2.73608 5.45191 2.40167 5.23219 2.03418 5.08594L1.875 5.02734L1.78613 4.99805L1.875 4.96875C2.30526 4.82591 2.69603 4.58424 3.0166 4.26367C3.33696 3.94331 3.57881 3.55298 3.72168 3.12305L3.75098 3.03418L3.78027 3.12305ZM12.501 1.79199C12.679 2.07863 12.9213 2.32011 13.208 2.49805C13.0656 2.58658 12.9338 2.69215 12.8145 2.81152C12.6949 2.93108 12.5896 3.06338 12.501 3.20605C12.4124 3.06338 12.3071 2.93108 12.1875 2.81152C12.0681 2.69215 11.9364 2.58658 11.7939 2.49805C12.0809 2.32018 12.3228 2.07869 12.501 1.79199Z" stroke="#334155" stroke-width="1.5"/>
</svg>
