<svg width="16" height="20" viewBox="0 0 16 20" fill="none" xmlns="http://www.w3.org/2000/svg">
<path d="M8.57223 7.80883C8.70973 7.39633 9.29223 7.39633 9.42973 7.80883L10.236 10.2301C10.4134 10.7623 10.7124 11.2459 11.1093 11.6426C11.5061 12.0392 11.9899 12.3379 12.5222 12.5151L14.9422 13.3213C15.3547 13.4588 15.3547 14.0413 14.9422 14.1788L12.521 14.9851C11.9887 15.1625 11.5051 15.4615 11.1085 15.8584C10.7119 16.2552 10.4132 16.739 10.236 17.2713L9.42973 19.6913C9.40009 19.7817 9.34268 19.8603 9.26568 19.9161C9.18869 19.9718 9.09605 20.0019 9.00098 20.0019C8.90592 20.0019 8.81328 19.9718 8.73629 19.9161C8.65929 19.8603 8.60188 19.7817 8.57223 19.6913L7.76598 17.2701C7.58864 16.738 7.28984 16.2544 6.89323 15.8578C6.49662 15.4612 6.0131 15.1624 5.48098 14.9851L3.05973 14.1788C2.96941 14.1492 2.89075 14.0918 2.83499 14.0148C2.77922 13.9378 2.7492 13.8451 2.7492 13.7501C2.7492 13.655 2.77922 13.5624 2.83499 13.4854C2.89075 13.4084 2.96941 13.351 3.05973 13.3213L5.48098 12.5151C6.0131 12.3377 6.49662 12.0389 6.89323 11.6423C7.28984 11.2457 7.58864 10.7622 7.76598 10.2301L8.57223 7.80883ZM3.74348 1.43508C3.76141 1.38095 3.79594 1.33384 3.84216 1.30046C3.88839 1.26707 3.94396 1.2491 4.00098 1.2491C4.05801 1.2491 4.11358 1.26707 4.1598 1.30046C4.20603 1.33384 4.24056 1.38095 4.25848 1.43508L4.74223 2.88758C4.95848 3.53508 5.46598 4.04258 6.11348 4.25883L7.56598 4.74258C7.62012 4.76051 7.66722 4.79503 7.70061 4.84126C7.734 4.88749 7.75197 4.94306 7.75197 5.00008C7.75197 5.0571 7.734 5.11268 7.70061 5.1589C7.66722 5.20513 7.62012 5.23966 7.56598 5.25758L6.11348 5.74133C5.79395 5.84738 5.50359 6.02657 5.26553 6.26463C5.02747 6.50269 4.84828 6.79305 4.74223 7.11258L4.25848 8.56508C4.24056 8.61921 4.20603 8.66632 4.1598 8.69971C4.11358 8.73309 4.05801 8.75107 4.00098 8.75107C3.94396 8.75107 3.88839 8.73309 3.84216 8.69971C3.79594 8.66632 3.76141 8.61921 3.74348 8.56508L3.25973 7.11258C3.15369 6.79305 2.9745 6.50269 2.73643 6.26463C2.49837 6.02657 2.20802 5.84738 1.88848 5.74133L0.435984 5.25758C0.381852 5.23966 0.334745 5.20513 0.301358 5.1589C0.26797 5.11268 0.25 5.0571 0.25 5.00008C0.25 4.94306 0.26797 4.88749 0.301358 4.84126C0.334745 4.79503 0.381852 4.76051 0.435984 4.74258L1.88848 4.25883C2.20802 4.15278 2.49837 3.97359 2.73643 3.73553C2.9745 3.49747 3.15369 3.20711 3.25973 2.88758L3.74348 1.43508ZM12.5797 0.123831C12.5921 0.0882393 12.6152 0.0573763 12.6459 0.0355334C12.6766 0.0136905 12.7133 0.00195312 12.751 0.00195312C12.7887 0.00195313 12.8254 0.0136905 12.8561 0.0355334C12.8868 0.0573763 12.9099 0.0882393 12.9222 0.123831L13.2447 1.09133C13.3885 1.52383 13.7272 1.86258 14.1597 2.00633L15.1272 2.32883C15.1628 2.34117 15.1937 2.36429 15.2155 2.39499C15.2374 2.42568 15.2491 2.46241 15.2491 2.50008C15.2491 2.53775 15.2374 2.57449 15.2155 2.60518C15.1937 2.63587 15.1628 2.65899 15.1272 2.67133L14.1597 2.99383C13.9468 3.06508 13.7533 3.18482 13.5945 3.3436C13.4357 3.50239 13.316 3.69588 13.2447 3.90883L12.9222 4.87633C12.9099 4.91192 12.8868 4.94279 12.8561 4.96463C12.8254 4.98647 12.7887 4.99821 12.751 4.99821C12.7133 4.99821 12.6766 4.98647 12.6459 4.96463C12.6152 4.94279 12.5921 4.91192 12.5797 4.87633L12.2572 3.90883C12.186 3.69588 12.0662 3.50239 11.9075 3.3436C11.7487 3.18482 11.5552 3.06508 11.3422 2.99383L10.376 2.67133C10.3404 2.65899 10.3095 2.63587 10.2877 2.60518C10.2658 2.57449 10.2541 2.53775 10.2541 2.50008C10.2541 2.46241 10.2658 2.42568 10.2877 2.39499C10.3095 2.36429 10.3404 2.34117 10.376 2.32883L11.3435 2.00633C11.776 1.86258 12.1147 1.52383 12.2585 1.09133L12.5797 0.123831Z" fill="#334155"/>
</svg>
