<svg width="60" height="80" viewBox="0 0 60 80" fill="none" xmlns="http://www.w3.org/2000/svg">
<path d="M37.5723 41.7021V41.7031C38.4049 44.2005 39.8079 46.4701 41.6699 48.3311C43.5316 50.1917 45.8015 51.5925 48.2988 52.4238V52.4248L56.0068 54.9922L48.2939 57.5605H48.293C45.7958 58.3932 43.5269 59.7964 41.666 61.6582C39.8053 63.5199 38.4036 65.7897 37.5723 68.2871L35.0039 75.9941L32.4355 68.2822L32.2734 67.8164C31.4835 65.6575 30.2621 63.6819 28.6846 62.0098L28.3408 61.6562C26.5962 59.9116 24.493 58.5701 22.1797 57.7236L21.7148 57.5605H21.7139L14 54.9922L21.7139 52.4248L21.7148 52.4238C24.2113 51.5917 26.48 50.1899 28.3408 48.3291C30.0855 46.5844 31.427 44.4814 32.2734 42.168L32.4355 41.7031V41.7021L35.0039 33.9902L37.5723 41.7021ZM15.5967 12.332L15.5977 12.334C16.6768 15.5652 19.1647 18.1208 22.3516 19.29L22.6621 19.3984L22.6641 19.3994L24.4443 19.9922L22.666 20.585C21.0187 21.1318 19.5213 22.0559 18.2939 23.2832C17.1434 24.4338 16.2596 25.8214 15.7031 27.3477L15.5967 27.6523L15.0039 29.4326L14.4111 27.6523C13.8643 26.006 12.9405 24.51 11.7139 23.2832C10.4865 22.0558 8.98916 21.1318 7.3418 20.585H7.34082L5.5625 19.9922L7.34082 19.3994L7.3418 19.4004C8.9892 18.8536 10.4865 17.9295 11.7139 16.7021C12.9413 15.4747 13.8653 13.9775 14.4121 12.3301L14.4111 12.3291L15.0039 10.5518L15.5967 12.332ZM50.0059 6.12695C50.8199 7.81764 52.1845 9.18047 53.876 9.99316C53.0384 10.3969 52.2713 10.9377 51.6104 11.5986C50.9493 12.2597 50.4077 13.0266 50.0039 13.8643C49.6001 13.0266 49.0585 12.2597 48.3975 11.5986C47.737 10.9382 46.9706 10.3978 46.1338 9.99414C47.8265 9.18169 49.1913 7.81841 50.0059 6.12695Z" stroke="#334155" stroke-width="5"/>
</svg>
