<svg width="28" height="28" viewBox="0 0 28 28" fill="none" xmlns="http://www.w3.org/2000/svg">
<g id="icon/file-search">
<path id="Vector" d="M4.66602 25.6673H20.9993C21.6182 25.6673 22.2117 25.4215 22.6493 24.9839C23.0869 24.5463 23.3327 23.9528 23.3327 23.334V8.75065L16.916 2.33398H6.99935C6.38051 2.33398 5.78702 2.57982 5.34943 3.0174C4.91185 3.45499 4.66602 4.04848 4.66602 4.66732V25.6673Z" fill="#334155" stroke="#334155" stroke-width="2.5" stroke-linecap="round" stroke-linejoin="round"/>
<path id="Vector_2" d="M16.334 2.33398V9.33398H23.334" stroke="white" stroke-width="2.5" stroke-linecap="square" stroke-linejoin="round"/>
<path id="Vector_3" d="M5.83398 19.834C6.29361 19.834 6.74874 19.7435 7.17338 19.5676C7.59802 19.3917 7.98385 19.1339 8.30886 18.8089C8.63386 18.4839 8.89167 18.098 9.06756 17.6734C9.24345 17.2487 9.33398 16.7936 9.33398 16.334C9.33398 15.8744 9.24345 15.4192 9.06756 14.9946C8.89167 14.57 8.63386 14.1841 8.30886 13.8591C7.98385 13.5341 7.59802 13.2763 7.17338 13.1004C6.74874 12.9245 6.29361 12.834 5.83398 12.834C4.90573 12.834 4.01549 13.2027 3.35911 13.8591C2.70273 14.5155 2.33398 15.4057 2.33398 16.334C2.33398 17.2622 2.70273 18.1525 3.35911 18.8089C4.01549 19.4652 4.90573 19.834 5.83398 19.834Z" stroke="white" stroke-width="2.5" stroke-linecap="round" stroke-linejoin="round"/>
<path id="Vector_4" d="M10.5 21L8.75 19.25" stroke="white" stroke-width="2.5" stroke-linecap="round" stroke-linejoin="round"/>
</g>
</svg>
